<?xml version="1.0" encoding="UTF-8"?>
<svg id="Capa_2" xmlns="http://www.w3.org/2000/svg" xmlns:xlink="http://www.w3.org/1999/xlink" viewBox="0 0 80.86 66.44">
  <defs>
    <style>
      .cls-1 {
        mask: url(#mask);
      }

      .cls-2 {
        fill: #fecc00;
      }

      .cls-3 {
        fill: #fff;
      }

      .cls-4 {
        fill: #004494;
      }

      .cls-5 {
        fill: #e2001a;
      }
    </style>
    <mask id="mask" x="-10.47" y="0" width="91.32" height="66.77" maskUnits="userSpaceOnUse">
      <g id="mask0_4_7">
        <path class="cls-3" d="M-10.47,66.77h91.32V0H24.93L-10.47,66.77Z"/>
      </g>
    </mask>
  </defs>
  <g id="Capa_1-2" data-name="Capa_1">
    <g class="cls-1">
      <g>
        <path class="cls-4" d="M24.06,11.46v12.55h31.74c18.88-1.09,23.22-17.83,25.06-24.02-4.34,7.83-11.53,11.46-19.21,11.46H24.06Z"/>
        <path class="cls-5" d="M38.09,42.39h12.36c18.88-1.09,23.22-17.83,25.06-24.02-4.34,7.83-11.53,11.46-19.21,11.46h-20.88c-9.86,0-16.71,9.46-18.71,13.1-5.68,1.27-16.04,7.28-16.71,16.74,1.84,4,6.35,7.1,10.86,6.73.67-9.83,3.17-16.74,7.02-22.2,6.52-2.18,16.37-1.82,20.21-1.82"/>
        <path class="cls-2" d="M24.23,48.03v12.55h20.38c18.88-1.09,23.22-17.83,25.06-24.02-4.34,7.83-11.53,11.46-19.21,11.46h-26.23Z"/>
      </g>
    </g>
  </g>
</svg>