<?xml version="1.0" encoding="UTF-8"?>
<svg id="Capa_2" xmlns="http://www.w3.org/2000/svg" viewBox="0 0 115.9 115.9">
  <defs>
    <style>
      .cls-1 {
        fill: #fff;
      }
    </style>
  </defs>
  <g id="Capa_1-2" data-name="Capa_1">
    <path class="cls-1" d="M45.1,90.2c11,0,21-3.9,28.8-10.5l35,35c.8.8,1.8,1.2,2.9,1.2s2.1-.4,2.9-1.2c1.6-1.6,1.6-4.2,0-5.8l-35-35c6.5-7.8,10.5-17.9,10.5-28.8C90.2,20.2,70,0,45.1,0,20.3,0,0,20.3,0,45.1s20.3,45.1,45.1,45.1ZM45.1,8.2c20.4,0,36.9,16.6,36.9,36.9s-16.5,36.9-36.9,36.9S8.2,65.4,8.2,45.1c0-20.3,16.6-36.9,36.9-36.9Z"/>
  </g>
</svg>